<svg xmlns="http://www.w3.org/2000/svg" width="435.847" height="421.902" viewBox="0 0 435.847 421.902">
  <g id="soatra-white" transform="translate(0 0)">
    <path id="Path_10" data-name="Path 10" d="M205.5-434.4c-36.5,3.7-59.3,9.8-85,22.9-44,22.4-76.3,55-98,99C-2.9-261-6.8-203.7,11.4-148.7A208.934,208.934,0,0,0,63.6-64.4c20.9,20.9,42.9,35.8,68.7,46.8,15.9,6.8,14.1,7,22.4-3.1a361.645,361.645,0,0,1,32.8-34.1l7.9-7.1-2.9-24.3c-1.6-13.4-3.2-25.2-3.6-26.4-.7-2-.9-2-9.6-.7-12.2,1.9-33.9,2.1-38,.4-7.6-3.1-15.5-23.1-21.8-55.2-1.3-6.7-2.7-12.5-3.2-12.9a20.361,20.361,0,0,0-4.8-2c-6.2-2-11.2-4.8-12.9-7.2-3-4.3-2-7,5.5-15.4,11.6-13,17.9-24,17.9-31.4,0-3.4-.4-3.6-9.1-7.1-11.1-4.3-20-9.9-27.1-16.8-8.4-8.3-10.3-13.8-9.5-27,.9-15,7.7-27.7,19-35.5,3.1-2.2,5.7-4.1,5.7-4.2,0-.2-6.5-3.9-14.4-8.4-7.9-4.4-15-8.7-15.6-9.5-1.9-2.3-.8-6.8,2.1-8.4,2.5-1.4,3.2-1.1,15.5,5.9,18.7,10.6,32.8,18.6,50.4,28.5,8.5,4.8,18.9,10.6,23,13,4.1,2.3,16.3,9.2,27,15.2,10.7,6.1,33.7,19.1,51,28.8,17.3,9.8,49.1,27.7,70.5,39.8,21.5,12,44,24.7,50,28.2,6.1,3.4,14,7.9,17.7,9.9,7.2,3.9,8.9,6.6,6.9,10.4-2.5,4.6-5.4,4-19.7-4.3-5.3-3-9.7-5.5-9.9-5.5s-4.1,3.7-8.7,8.2c-12.5,12.4-25.6,19.1-40.7,20.7-5.2.6-5.7.9-7.3,4.1-6.6,13.1,4.2,59.3,20.2,87.1,4.5,7.8,17.4,26.4,18.9,27.4,1.5.8,20.5-13.9,30.9-23.9,48.5-46.8,72.4-110.8,66.2-177.1A217.94,217.94,0,0,0,270.4-428.4c-5.4-1.4-14.8-3.2-20.9-4.1C238.7-434.1,213.2-435.2,205.5-434.4Zm58.1,21.9c18.4,9,38.6,27.4,58.5,53l7.7,10.1,18.9,8.2c10.3,4.6,20.9,9.8,23.5,11.7,9.4,6.9,15.4,19.8,14.5,31.5-.2,3.6-3.2,17.7-6.6,31.5C371.3-231,369.9-226,368.6-226c-.6,0-6.7-3.2-13.6-7.1-23.2-13.1-36.3-20.5-107-60.4-114.9-64.8-106-59.7-106-60.8a3.263,3.263,0,0,1,1.4-2.1c8-6.4,39.1-29.4,50.1-37.2,7.7-5.3,16.2-11.5,18.9-13.7,10.6-8.3,19.1-10.9,33.1-10.2C253.7-417.1,255.3-416.6,263.6-412.5Z" transform="translate(-0.117 434.668)" fill="#fff"/>
    <path id="Path_11" data-name="Path 11" d="M138.6-265.9c-3.8,3-8.3,12.5-9.7,20.4-1.6,9.4-.7,25.4,2,32.9,2.4,6.9,6.1,12,10.2,14.2,8.6,4.4,17.6-7,20.3-25.9l.7-4.7H209c25.8,0,47.5-.3,48.4-.6,1.9-.7,2.1-4.5.4-6.2-.9-.9-13-1.2-48.4-1.2H162.2l-1.1-6.6c-2.7-15.1-8.7-24.4-16-24.4A10.973,10.973,0,0,0,138.6-265.9Z" transform="translate(-0.117 434.668)" fill="#fff"/>
  </g>
</svg>
